<svg width="680" height="217" viewBox="0 0 680 217" fill="none" xmlns="http://www.w3.org/2000/svg">
<g clip-path="url(#clip0_1_5)">
<rect width="680" height="217" fill="white"/>
<path d="M248.331 85.135H241V131.273H248.331V85.135Z" fill="#05012D"/>
<path d="M490.293 85.135H482.961V131.273H490.293V85.135Z" fill="#05012D"/>
<path d="M574.767 85.135H567.435V131.273H574.767V85.135Z" fill="#05012D"/>
<path d="M302.303 133C301.628 132.996 300.962 132.855 300.344 132.585C299.725 132.315 299.169 131.922 298.708 131.43L263.308 94.0361V130.975H255.976V88.0706C255.971 87.0763 256.265 86.1033 256.821 85.2788C257.377 84.4542 258.168 83.8164 259.092 83.4485C260.016 83.0807 261.029 82.9999 262 83.2168C262.97 83.4336 263.853 83.938 264.532 84.664L299.979 122.074V84.8367H307.311V128.055C307.314 129.049 307.016 130.021 306.455 130.842C305.895 131.664 305.098 132.296 304.171 132.654C303.576 132.888 302.942 133.005 302.303 133V133Z" fill="#05012D"/>
<path d="M364.438 131.885H319.571C317.857 131.881 316.214 131.198 315.002 129.986C313.79 128.774 313.108 127.132 313.103 125.417V91.0063C313.103 89.2895 313.784 87.6427 314.997 86.4273C316.209 85.2118 317.854 84.5269 319.571 84.5228H364.752V91.8697H320.45V124.507H364.406L364.438 131.885Z" fill="#05012D"/>
<path d="M478.566 131.885H433.699C431.985 131.881 430.343 131.198 429.131 129.986C427.919 128.774 427.236 127.132 427.232 125.417V91.0063C427.232 89.2895 427.913 87.6427 429.125 86.4273C430.338 85.2118 431.983 84.5269 433.699 84.5228H478.864V91.8697H434.563V124.507H478.519L478.566 131.885Z" fill="#05012D"/>
<path d="M416.211 132.199H375.395C373.73 132.199 372.133 131.538 370.955 130.36C369.777 129.182 369.116 127.585 369.116 125.92V89.2794C369.116 87.614 369.777 86.0168 370.955 84.8392C372.133 83.6616 373.73 83 375.395 83H416.29C417.955 83 419.552 83.6616 420.73 84.8392C421.908 86.0168 422.569 87.614 422.569 89.2794V125.92C422.569 126.751 422.404 127.574 422.084 128.341C421.763 129.108 421.294 129.804 420.702 130.388C420.111 130.972 419.409 131.433 418.638 131.744C417.868 132.055 417.043 132.21 416.211 132.199V132.199ZM376.368 124.868H415.16V90.3312H376.368V124.868Z" fill="#05012D"/>
<path d="M529.931 131.713C528.861 131.722 527.805 131.457 526.865 130.943C525.926 130.429 525.133 129.684 524.563 128.777L496.965 85.6687H505.206L529.931 123.581L554.076 85.6687H561.8L535.269 128.761C534.694 129.665 533.901 130.408 532.962 130.924C532.024 131.44 530.971 131.711 529.9 131.713H529.931Z" fill="#05012D"/>
<path d="M633.322 130.975H587.498C586.12 130.975 584.798 130.427 583.824 129.453C582.849 128.478 582.302 127.157 582.302 125.778V84.9623H589.586V123.612H633.275L633.322 130.975Z" fill="#05012D"/>
<path d="M158.26 98.07L110.26 147.07" stroke="#9F1F00" stroke-width="6" stroke-miterlimit="10"/>
<path d="M160.81 101.8L122.26 51.07" stroke="#9F1F00" stroke-width="6" stroke-miterlimit="10"/>
<path d="M101.38 113.07L113.26 154.07" stroke="#9F1F00" stroke-width="6" stroke-miterlimit="10"/>
<path d="M123.74 52L86.4 154.08C86.3155 154.315 86.1607 154.517 85.9566 154.66C85.7526 154.804 85.5093 154.88 85.26 154.88H23.26C23.0227 154.877 22.7913 154.805 22.5943 154.673C22.3973 154.54 22.2431 154.353 22.1508 154.135C22.0584 153.916 22.0319 153.675 22.0744 153.442C22.1169 153.208 22.2266 152.992 22.39 152.82L121.74 50.74C121.934 50.5435 122.189 50.4191 122.463 50.3874C122.737 50.3556 123.013 50.4185 123.247 50.5656C123.48 50.7126 123.656 50.935 123.746 51.1959C123.836 51.4568 123.834 51.7405 123.74 52V52Z" stroke="#FCD294" stroke-width="6" stroke-miterlimit="10"/>
<path d="M238.94 24.42L113.08 152.56C112.893 152.754 112.767 153 112.719 153.265C112.671 153.531 112.702 153.805 112.809 154.052C112.916 154.3 113.093 154.511 113.319 154.658C113.546 154.805 113.81 154.883 114.08 154.88H193.56C193.84 154.879 194.112 154.792 194.341 154.631C194.57 154.47 194.744 154.243 194.84 153.98L241.19 25.83C241.294 25.5384 241.295 25.2202 241.193 24.9279C241.091 24.6356 240.893 24.3868 240.631 24.2225C240.368 24.0581 240.058 23.9881 239.751 24.0241C239.443 24.06 239.157 24.1996 238.94 24.42V24.42Z" stroke="#FCD294" stroke-width="6" stroke-miterlimit="10"/>
<path d="M128.47 56.89L104.26 123.07" stroke="#9F1F00" stroke-width="6" stroke-miterlimit="10"/>
</g>
<defs>
<clipPath id="clip0_1_5">
<rect width="680" height="217" fill="white"/>
</clipPath>
</defs>
</svg>
